<?xml version="1.0" encoding="UTF-8"?>
<svg width="500" height="500" version="1.1" viewBox="0 0 132.29 132.29" xmlns="http://www.w3.org/2000/svg" xmlns:cc="http://creativecommons.org/ns#" xmlns:dc="http://purl.org/dc/elements/1.1/" xmlns:rdf="http://www.w3.org/1999/02/22-rdf-syntax-ns#">
  <title>Northern Strike</title>
  <metadata>
    <rdf:RDF>
      <cc:Work rdf:about="">
        <dc:format>image/svg+xml</dc:format>
        <dc:type rdf:resource="http://purl.org/dc/dcmitype/StillImage"/>
        <dc:title>Northern Strike</dc:title>
        <dc:creator>
          <cc:Agent>
            <dc:title>Frederick Tsang</dc:title>
          </cc:Agent>
        </dc:creator>
      </cc:Work>
    </rdf:RDF>
  </metadata>
  <path d="m54.838 104.84c-7.5446-1.0216-21.131 1.491-26.634 8.1168-0.24998-4.0814 3.0118-10.138 6.6585-12.595-9.4375-1.7008-15.855 1.2009-23.181 6.4374 7.4513-12.098 15.902-16.528 27.374-21.971 6.2564-10.657 7.1712-20.516 24.908-32.887" fill="none" stroke="#fffff5" stroke-linecap="round" stroke-miterlimit="8" stroke-width="4.146" style="paint-order:normal"/>
  <path d="m88.007 64.398c6.1495-7.5073 3.5952-21.833 23.685-15.262l9.8788-2.3213c-10.127-8.4563-19.399-9.3426-31.961-9.5663 3.1628-5.595 14.043-9.5416 22.666-6.8704-3.4471-10.641-11.222-13.709-19.01-13.654-17.945 0.12773-14.954 19.155-23.151 31.844-13.403 5.8637-13.403 5.8637 0 0-11.635 9.4772-15.102 14.305-14.15 27.583 10.638-1.4663 22.156 6.2236 32.042-11.754z" fill="#8080c4"/>
  <path d="m54.838 104.84c10.581-0.28973 24.591 8.5381 40.729 0.17207 8.1162-4.2074 18.011-13.413 19.32-28.562 1.3182-15.247-7.1921-20.72-5.5487-23.669 2.5059-4.4954 6.9644-6.0775 15.536-3.4986-8.2718-14.665-16.694-31.328-30.58-31.208-23.582 0.20474-10.219 25.804-30.333 33.866" fill="none" stroke="#fffff5" stroke-linecap="round" stroke-linejoin="round" stroke-miterlimit="8" stroke-width="4.146" style="paint-order:normal"/>
  <path d="m63.963 51.943c-16.471 11.443-17.929 18.888-18.003 40.584 16.49-13.658 30.136 3.1255 42.047-28.129l-7.2648 0.085" fill="none" stroke="#fffff5" stroke-linecap="round" stroke-miterlimit="8" stroke-width="4.146"/>
</svg>
