<?xml version="1.0" encoding="UTF-8"?>
<svg width="500" height="500" version="1.1" viewBox="0 0 60 60" xmlns="http://www.w3.org/2000/svg" xmlns:cc="http://creativecommons.org/ns#" xmlns:dc="http://purl.org/dc/elements/1.1/" xmlns:rdf="http://www.w3.org/1999/02/22-rdf-syntax-ns#">
  <title>Northern Shrike SVG</title>
  <metadata>
    <rdf:RDF>
      <cc:Work rdf:about="">
        <dc:format>image/svg+xml</dc:format>
        <dc:type rdf:resource="http://purl.org/dc/dcmitype/StillImage"/>
        <dc:title>Northern Shrike SVG</dc:title>
        <dc:creator>
          <cc:Agent>
            <dc:title>Frederick Tsang</dc:title>
          </cc:Agent>
        </dc:creator>
      </cc:Work>
    </rdf:RDF>
  </metadata>
  <path d="m19.969 46.895-4.4099 6.0136" fill="none" stroke="#413d40" stroke-linecap="round"/>
  <path d="m12.236 14.897s1.922-2.918 6.4515-3.841c4.5295-0.92298 7.6146 0.16717 7.6146 0.16717l21.481 34.276 7.1495 11.827-10.29-6.5481c-9.0646-0.36678-17.93-0.6627-24.722-4.1427-9.1269-5.1028-10.573-13.887-7.0826-22.317s-0.63295-9.0534-0.60136-9.4212" fill="#e3e4de"/>
  <path d="m15.576 6.8823 7.8855 4.2774c4.7343 5.1986-1.5174 12.152-3.8764 14.365 3.4053-0.79582 6.3476 1.5368 6.3476 1.5368-0.52761 12.568 15.148 16.849 21.849 18.442l4.8108 1.2695-3.9422-10.624c-2.2643-5.5382-4.4075-9.2188-12.762-13.698 0.41927-9.2148-0.0891-18.546-7.684-19.444-7.5949-0.8976-12.628 3.8754-12.628 3.8754" fill="#bbbab8"/>
  <path d="m29.675 44.367 1.8709 13.096" fill="none" stroke="#413d40" stroke-linecap="round"/>
  <path d="m5.1534 14.497 7.0826 0.4009s4.4846-2.5733 7.7508-3.274c3.2662-0.70072 11.626-0.26728 11.626-0.26728l-16.036-4.4768z" fill="#070708"/>
</svg>
